<svg xmlns="http://www.w3.org/2000/svg" height="38px" viewBox="0 0 15.72 22.85"><defs><style>.cls-1{fill:#fac012;}</style></defs><title>Asset 27</title><g id="Layer_2" data-name="Layer 2"><g id="Layer_1-2" data-name="Layer 1"><path class="cls-1" d="M10.95,6.7c0-1.55-1.26-2.54-3.16-2.54A4.85,4.85,0,0,0,3.54,6.51L0,4.25C1.58,1.65,4.33,0,8.28,0c4.39,0,7.43,2.13,7.43,5.87,0,5.08-4.92,5.65-4.92,9H6.38c0-4.44,4.57-5.43,4.57-8.19M5.8,20a2.73,2.73,0,0,1,2.81-2.82A2.73,2.73,0,0,1,11.41,20,2.81,2.81,0,1,1,5.8,20"/></g></g></svg>